<svg xmlns="http://www.w3.org/2000/svg" width="28" height="28" viewBox="0 0 28 28">
    <g fill="none" fill-rule="evenodd">
        <g>
            <g>
                <g>
                    <g>
                        <path fill="#DFDFDF" fill-rule="nonzero" d="M14.886 22.348c1.369 0 2.478 1.11 2.478 2.478 0 1.369-1.11 2.478-2.478 2.478-1.369 0-2.478-1.11-2.478-2.478 0-1.369 1.11-2.479 2.478-2.479zm6.309 0c1.368 0 2.478 1.11 2.478 2.478 0 1.369-1.11 2.478-2.478 2.478-1.37 0-2.479-1.11-2.479-2.478 0-1.369 1.11-2.479 2.479-2.479zm-6.31 1.802c-.372 0-.675.303-.675.676 0 .373.303.676.676.676.373 0 .676-.303.676-.676 0-.373-.303-.676-.676-.676zm6.31 0c-.374 0-.676.303-.676.676 0 .373.302.676.676.676.373 0 .676-.303.676-.676 0-.373-.303-.676-.676-.676zM10.405 5.224c.383 0 .72.24.847.594l.03.099.477 2.01h14.61c.563 0 .978.507.89 1.045l-.025.108-3.404 11.716c-.112.385-.464.65-.865.65H13.39c-.43 0-.8-.303-.884-.724L10.166 9.02l-.474-1.995H7c-.465 0-.847-.351-.896-.803l-.005-.098c0-.465.351-.847.803-.896L7 5.224h3.405z" transform="translate(-1357 -41) translate(1357 41)"/>
                        <path fill="#000" fill-rule="nonzero" d="M12.26 19.723c1.37 0 2.48 1.11 2.48 2.478 0 1.369-1.11 2.478-2.48 2.478-1.368 0-2.477-1.11-2.477-2.478 0-1.369 1.11-2.479 2.478-2.479zm6.31 0c1.368 0 2.478 1.11 2.478 2.478 0 1.369-1.11 2.478-2.478 2.478-1.37 0-2.479-1.11-2.479-2.478 0-1.369 1.11-2.479 2.479-2.479zm-6.31 1.802c-.372 0-.675.303-.675.676 0 .373.303.676.676.676.373 0 .676-.303.676-.676 0-.373-.303-.676-.676-.676zm6.31 0c-.374 0-.676.303-.676.676 0 .373.302.676.676.676.373 0 .676-.303.676-.676 0-.373-.303-.676-.676-.676zM7.78 2.599c.383 0 .72.24.847.594l.03.099.477 2.01h14.61c.563 0 .978.507.89 1.045l-.025.108-3.404 11.716c-.112.385-.464.65-.865.65h-9.575c-.43 0-.8-.303-.884-.724L7.541 6.396 7.068 4.4H4.375c-.465 0-.847-.351-.896-.803L3.474 3.5c0-.465.351-.847.803-.896l.098-.005H7.78z" transform="translate(-1357 -41) translate(1357 41)"/>
                        <text fill="#FFF" font-family="Montserrat-SemiBold, Montserrat SemiBold" font-size="13" font-weight="500" transform="translate(-1357 -41) translate(1357 41)">
                            <tspan x="12.836" y="16.375">1</tspan>
                        </text>
                    </g>
                </g>
            </g>
        </g>
    </g>
</svg>
