<svg xmlns="http://www.w3.org/2000/svg" width="28" height="28" viewBox="0 0 28 28">
    <g fill="none" fill-rule="evenodd">
        <g fill="#000" fill-rule="nonzero">
            <g>
                <g>
                    <g>
                        <path d="M12.26 19.723c1.37 0 2.48 1.11 2.48 2.478 0 1.369-1.11 2.478-2.48 2.478-1.368 0-2.477-1.11-2.477-2.478 0-1.369 1.11-2.479 2.478-2.479zm6.31 0c1.368 0 2.478 1.11 2.478 2.478 0 1.369-1.11 2.478-2.478 2.478-1.37 0-2.479-1.11-2.479-2.478 0-1.369 1.11-2.479 2.479-2.479zm-6.31 1.802c-.372 0-.675.303-.675.676 0 .373.303.676.676.676.373 0 .676-.303.676-.676 0-.373-.303-.676-.676-.676zm6.31 0c-.374 0-.676.303-.676.676 0 .373.302.676.676.676.373 0 .676-.303.676-.676 0-.373-.303-.676-.676-.676zM7.78 2.599c.383 0 .72.24.847.594l.03.099.477 2.01h14.61c.563 0 .978.507.89 1.045l-.025.108-3.404 11.716c-.112.385-.464.65-.865.65h-9.575c-.43 0-.8-.303-.884-.724L7.541 6.396 7.068 4.4H4.375c-.465 0-.847-.351-.896-.803L3.474 3.5c0-.465.351-.847.803-.896l.098-.005H7.78z" transform="translate(-1357 -183) translate(0 142) translate(1357 41)"/>
                    </g>
                </g>
            </g>
        </g>
    </g>
</svg>
