<svg xmlns="http://www.w3.org/2000/svg" width="81" height="74" viewBox="0 0 81 74">
    <g fill="none" fill-rule="evenodd">
        <g fill="#232323" fill-rule="nonzero">
            <g>
                <g>
                    <path d="M13.089 22.423c1.935 0 3.679-.342 5.231-1.028 1.553-.685 2.843-1.673 3.871-2.963l-3.81-3.448c-1.371 1.653-3.034 2.48-4.99 2.48-1.149 0-2.172-.252-3.07-.756-.896-.504-1.592-1.215-2.086-2.132-.494-.917-.74-1.97-.74-3.16 0-1.19.246-2.243.74-3.16.494-.917 1.19-1.628 2.087-2.132.897-.504 1.92-.756 3.07-.756 1.955 0 3.618.827 4.989 2.48L22.19 4.4c-1.028-1.29-2.318-2.278-3.87-2.963C16.767.75 15.023.409 13.088.409c-2.218 0-4.209.468-5.973 1.406-1.764.937-3.15 2.243-4.158 3.916-1.008 1.673-1.512 3.568-1.512 5.685 0 2.117.504 4.012 1.512 5.685s2.394 2.979 4.158 3.916c1.764.938 3.755 1.406 5.973 1.406zM59.839 22v-4.748h-10.1V.832h-5.987V22H59.84zM12.473 60.823c3.145 0 5.59-.856 7.333-2.57 1.744-1.714 2.616-4.143 2.616-7.288V39.232h-5.897v11.552c0 3.387-1.33 5.08-3.992 5.08-2.681 0-4.022-1.693-4.022-5.08V39.232H2.524v11.733c0 3.145.872 5.574 2.616 7.288 1.743 1.714 4.188 2.57 7.333 2.57zm41.932-.423c2.822 0 4.98-.504 6.47-1.512 1.493-1.008 2.239-2.44 2.239-4.294 0-1.27-.343-2.354-1.028-3.25-.686-.898-1.633-1.558-2.843-1.982.907-.463 1.608-1.093 2.102-1.89.494-.796.74-1.698.74-2.706 0-1.694-.705-3.04-2.116-4.037-1.411-.998-3.468-1.497-6.17-1.497H42.975V60.4h11.43zm-1.391-12.761H48.9v-4.083h4.113c2.016 0 3.024.676 3.024 2.026 0 1.371-1.008 2.057-3.024 2.057zm.907 8.437H48.9v-4.294h5.02c2.096 0 3.145.715 3.145 2.147 0 1.431-1.049 2.147-3.145 2.147z" transform="translate(-326 -24) translate(326 24)"/>
                </g>
            </g>
        </g>
    </g>
</svg>
